<svg width="22" height="25" viewBox="0 0 22 25" fill="none" xmlns="http://www.w3.org/2000/svg">
<g id="Logo">
<g id="Vector">
<path d="M1.77326 14.2718C1.06164 12.6191 1.82453 10.7025 3.47722 9.99084C5.12991 9.27922 7.04656 10.0421 7.75818 11.6948C8.4698 13.3475 7.70691 15.2641 6.05422 15.9758C4.40153 16.6874 2.48488 15.9245 1.77326 14.2718Z" fill="url(#paint0_radial_190_46)"/>
<path d="M5.68772 23.4785C3.20049 22.1932 1.23588 20.0852 0.128648 17.5137L1.84307 16.7755C3.21646 17.9818 5.21362 18.3647 7.00422 17.5937C8.79481 16.8227 9.88908 15.1087 9.95652 13.282L11.2435 12.7278L9.87164 12.1818C9.8059 11.8417 9.70277 11.5035 9.56016 11.1723C8.49273 8.69322 5.61775 7.54889 3.13872 8.61632C2.80752 8.75892 2.50014 8.9338 2.21868 9.13567L3.63634e-06 8.25256C1.03538 5.65132 2.94068 3.48956 5.39125 2.13561C7.84182 0.781657 10.686 0.319296 13.4393 0.827303C16.1925 1.33531 18.6845 2.78226 20.4905 4.9216C21.393 5.9907 20.1695 5.99127 18.6033 5.992C17.0355 5.99273 15.1242 5.99362 14.6585 7.06679C23.5019 12.7278 22.4496 18.0856 20.7038 20.2742C18.9579 22.4629 16.5071 23.9785 13.769 24.5628C11.0309 25.1471 8.17495 24.7639 5.68772 23.4785Z" fill="#333646"/>
</g>
</g>
<defs>
<radialGradient id="paint0_radial_190_46" cx="0" cy="0" r="1" gradientUnits="userSpaceOnUse" gradientTransform="translate(10.9454 12.7278) rotate(90) scale(12.1014 10.9454)">
<stop stop-color="#FFE0AC"/>
<stop offset="0.557292" stop-color="#FFAF29"/>
<stop offset="1" stop-color="#FFAF29"/>
</radialGradient>
</defs>
</svg>
