<svg width="25" height="25" viewBox="0 0 25 25" fill="none" xmlns="http://www.w3.org/2000/svg">
<g id="Search">
<path id="Vector (Stroke)" fill-rule="evenodd" clip-rule="evenodd" d="M11.2222 3C6.08657 3 2 6.97137 2 11.7778C2 16.5842 6.08657 20.5556 11.2222 20.5556C13.7347 20.5556 15.9961 19.605 17.6508 18.0712C17.6719 18.044 17.6947 18.0176 17.719 17.9921C17.7643 17.9447 17.8132 17.9028 17.8648 17.8663C19.4659 16.2817 20.4444 14.1297 20.4444 11.7778C20.4444 6.97137 16.3579 3 11.2222 3ZM19.8618 18.6579C21.4721 16.7971 22.4444 14.4035 22.4444 11.7778C22.4444 5.78395 17.3777 1 11.2222 1C5.06672 1 0 5.78395 0 11.7778C0 17.7716 5.06672 22.5556 11.2222 22.5556C13.951 22.5556 16.4658 21.6154 18.4201 20.0465L23.3088 24.7226C23.7079 25.1044 24.3409 25.0903 24.7226 24.6912C25.1044 24.2921 25.0903 23.6591 24.6912 23.2774L19.8618 18.6579Z" fill="black"/>
</g>
</svg>
